<?xml version="1.0" standalone="no"?>
<!DOCTYPE svg PUBLIC "-//W3C//DTD SVG 20010904//EN"
 "http://www.w3.org/TR/2001/REC-SVG-20010904/DTD/svg10.dtd">
<svg version="1.0" xmlns="http://www.w3.org/2000/svg"
 width="260.000000pt" height="260.000000pt" viewBox="0 0 260.000000 260.000000"
 preserveAspectRatio="xMidYMid meet">
<metadata>
Created by potrace 1.11, written by Peter Selinger 2001-2013
</metadata>
<g transform="translate(0.000000,260.000000) scale(0.100000,-0.100000)"
fill="#000000" stroke="none">
<path d="M875 2265 c-33 -7 -73 -16 -89 -20 -45 -10 -168 -69 -233 -111 -76
-52 -174 -151 -218 -224 -40 -65 -81 -162 -89 -207 -3 -15 -9 -49 -14 -74 -16
-86 -5 -211 29 -312 87 -262 334 -464 624 -513 43 -7 215 -14 215 -8 0 2 -37
21 -82 42 -170 80 -315 222 -382 373 -23 53 -38 89 -41 99 -53 204 -35 376 59
550 95 178 281 328 478 387 28 8 47 17 44 21 -12 11 -241 9 -301 -3z"/>
<path d="M1386 1702 c-27 -3 -26 -5 25 -26 90 -36 175 -93 252 -169 117 -114
174 -212 212 -359 27 -108 27 -254 -1 -344 -9 -33 -18 -65 -20 -72 -10 -51
-103 -199 -165 -262 -65 -67 -219 -176 -264 -187 -38 -9 -147 -53 -135 -54 8
0 24 -2 35 -5 11 -2 49 -4 85 -5 330 -9 643 180 767 462 63 142 75 350 29 477
-8 23 -15 44 -16 47 -2 22 -58 123 -94 172 -87 115 -198 200 -339 260 -110 46
-280 76 -371 65z"/>
<path d="M1158 1580 c-119 -36 -189 -149 -189 -305 0 -183 102 -307 253 -306
109 0 207 80 239 194 16 55 15 172 0 222 -19 60 -35 95 -43 95 -5 0 -8 5 -8
11 0 16 -47 55 -88 75 -39 18 -126 26 -164 14z m126 -123 c39 -26 61 -84 60
-162 -1 -107 -42 -165 -118 -172 -75 -6 -129 67 -130 174 0 140 95 221 188
160z"/>
</g>
</svg>
